<?xml version="1.0" encoding="utf-8"?>
<!DOCTYPE svg PUBLIC "-//W3C//DTD SVG 1.1//EN"  "http://www.w3.org/Graphics/SVG/1.1/DTD/svg11.dtd">
<svg version="1.1" xmlns="http://www.w3.org/2000/svg" xmlns:xlink="http://www.w3.org/1999/xlink" font-family="Arial" font-size="13" width="423" height="300">
	<desc>UML diagram model</desc>
	<g id="_Gbu48uoTEeaowdqlt8Dqsg">
		<defs>
			<linearGradient id="greyGradient" x1="0%" y1="0%" x2="0%" y2="100%" spreadMethod="pad">
				<stop offset="0%" stop-color="#FFFFFF" stop-opacity="1" />
				<stop offset="100%" stop-color="#EEEEEE" stop-opacity="1" />
				
			</linearGradient>
			<linearGradient id="packageGradient" x1="0%" y1="0%" x2="0%" y2="100%" spreadMethod="pad">
				<stop offset="0%" stop-color="#FFFFFF" stop-opacity="1" />
				<stop offset="100%" stop-color="#EFE9DE" stop-opacity="0.4" />
				
			</linearGradient>
			<linearGradient id="executionSpecificationGradient" x1="0%" y1="0%" x2="0%" y2="100%" spreadMethod="pad">
				<stop offset="0%" stop-color="#FFFFFF" stop-opacity="1" />
				<stop offset="100%" stop-color="#EFE9DE" stop-opacity="1" />
				
			</linearGradient>
			
		</defs>
		<g id="_XosdcMxBEDSoZrmUhQnjtg">
			<ellipse cx="70" cy="51" rx="6" ry="6" fill="#FFF" stroke="#888" stroke-width="2.0" />
			<line x1="70" y1="57" x2="70" y2="88" stroke-width="2.0" stroke="#888" />
			<line x1="56" y1="69" x2="84" y2="69" stroke-width="2.0" stroke="#888" />
			<line x1="70" y1="88" x2="59" y2="106" stroke-width="2.0" stroke="#888" />
			<line x1="70" y1="88" x2="80" y2="106" stroke-width="2.0" stroke="#888" />
			<text x="70" y="108" text-anchor="middle" font-style="normal" font-weight="normal" fill="black">
				<tspan x="70" text-anchor="middle" dy="13">Modérateurs</tspan>
				
			</text>
			
		</g>
		<g id="_aImOYMxBEDSoZrmUhQnjtg">
			<ellipse cx="202" cy="178" rx="6" ry="6" fill="#FFF" stroke="#888" stroke-width="2.0" />
			<line x1="202" y1="184" x2="202" y2="215" stroke-width="2.0" stroke="#888" />
			<line x1="188" y1="196" x2="216" y2="196" stroke-width="2.0" stroke="#888" />
			<line x1="202" y1="215" x2="191" y2="233" stroke-width="2.0" stroke="#888" />
			<line x1="202" y1="215" x2="212" y2="233" stroke-width="2.0" stroke="#888" />
			<text x="202" y="235" text-anchor="middle" font-style="normal" font-weight="normal" fill="black">
				<tspan x="202" text-anchor="middle" dy="13">Particuliers</tspan>
				
			</text>
			
		</g>
		<g id="_sERJwMxBEDSoZrmUhQnjtg">
			<ellipse cx="353" cy="51" rx="6" ry="6" fill="#FFF" stroke="#888" stroke-width="2.0" />
			<line x1="353" y1="57" x2="353" y2="88" stroke-width="2.0" stroke="#888" />
			<line x1="339" y1="69" x2="367" y2="69" stroke-width="2.0" stroke="#888" />
			<line x1="353" y1="88" x2="342" y2="106" stroke-width="2.0" stroke="#888" />
			<line x1="353" y1="88" x2="363" y2="106" stroke-width="2.0" stroke="#888" />
			<text x="353" y="108" text-anchor="middle" font-style="normal" font-weight="normal" fill="black">
				<tspan x="353" text-anchor="middle" dy="13">Associations</tspan>
				
			</text>
			
		</g>
		<g id="_334uUNEOEDS0Xfe-_iTrRA">
			<rect x="132" y="20" width="140" height="126" rx="2" ry="3" fill="#fff" fill-opacity="0.5" stroke="#BBBBBB" stroke-width="1" />
			<text x="137" y="38" font-style="normal" font-weight="bold" fill="#2d2d2d">assoservices</text>
			
		</g>
		<g id="_n9_Q4MxBEDSoZrmUhQnjtg">
			<ellipse cx="202" cy="84" rx="50" ry="28" fill="url(#greyGradient)" stroke="#BBBBBB" stroke-width="1.0" />
			<g transform="translate(152,70.5)">
				<text x="50" y="0" text-anchor="middle" font-style="normal" font-weight="bold" fill="#033656">
					<tspan x="50" text-anchor="middle" dy="13">Echanger des</tspan>
					<tspan x="50" text-anchor="middle" dy="13">services</tspan>
					
				</text>
				
			</g>
			
		</g>
		<g id="_uMHAAMxBEDSoZrmUhQnjtg">
			<polyline fill="none" stroke-width="1" stroke="#000000" points="202,170 202,111" />
			
		</g>
		<g id="_vHBwIMxBEDSoZrmUhQnjtg">
			<polyline fill="none" stroke-width="1" stroke="#000000" points="333,83 252,83" />
			
		</g>
		<g id="_wRBeEMxBEDSoZrmUhQnjtg">
			<polyline fill="none" stroke-width="1" stroke="#000000" points="90,83 152,83" />
			
		</g>
		
	</g>
	
</svg>
